<svg xmlns="http://www.w3.org/2000/svg" width="1140" height="4" viewBox="0 0 1140 4">
    <path fill="#DED2C4" fill-rule="evenodd" d="M279.666.696l1.461.063c-3.299.07-2.375.007-1.461-.063M1086.012.6c.754-.033.703-.066.384-.1-.524.06-2.209.065-4.13.048.534.063 1.504.107 3.746.052m-7.507-.104c-.07.004-.118.007-.174.012-3.615-.094-2.334-.057.174-.012M724.24 2.176c-1.203.08-3.067.04-5.173-.05 1.528-.021 3.256-.012 5.173.05m-127.172.58c-1.62.05-4.852.208-6.037.065 1.846-.275 3.274-.144 6.037-.064m-83.657.156l5.598.195c-6.757.32-11.645.21-6.39.484.792-.68 21.758-.07 22.536-.748l3.692.143c-1.058-.007-1.227.033-2.273.026 7.177.326 5.332-.491 14.578-.394 3.223.052 5.471.15 3.275.23l7.18-.167c2.09.014 1.578.13-.501.118l10.952-.053-.082.019c1.563-.106 5.104-.271 6.834-.341 2.78.097-1.396.072-.684.157l6.063-.165c2.47.176-2.555.347-6.743.322 5.663.678 5.032-.171 17.253.225l-5.726.086c3.692.385 8.161.246 14.635.486-1.536-.125-12.961-.606-6.38-.775 1.854.052 4.3.076 7.85-.061.033.242 3.5.183 7.838.169l-.296.32c4.69-.093 4.318-.256 7.078-.4 5.229.032 6.312.28 7.543.489 8.371.05-5.782-.397 4.127-.458 6.962.122 11.85-.008 20.178-.2 4.874.11-.85.196.898.288l4.318-.256c1.058.007.717.085.543.124 3.639-.1.3-.32 6.022-.406 1.543-.353 11.746.514 18.828.115 1.745.09-.84.195-.31.319 9.717-.262 8.33-.19 16.307-.544l6.798.21c-4.995-.24 1.386-.524 6.976-.757-1.773-.117-3.287-.218-4.302-.266l8.919-.172c1.077.053.178.162-1.283.296.609-.026 1.185-.053 1.635-.076 3.19.117 1.535.303-.748.48-1.09-.062-2.167-.13-3.215-.197-2.201.195-4.262.41-3.805.598.58-.037 1.697-.07 2.925-.087-.576.053-.944.099-.677.132.301.033 1.233-.038 2.691-.12l2.026.358.494-.143 11.668.224c8.348-.358 15.61-.888 28.86-1.034-3.288.26-.706.427-.886.736-3.614-.328-10.262.14-17.128.073 3.582.035 2.794.182 1.884.234l12.247-.3c-.276.255 2.6.19 5.8.296-2.418-.5 9.13-.333 14.112-.487.311.168-.884.34-6.965.299 6.709.377 8.669-.588 15.254-.267-1.485.004-2.286-.022-2.872.063 3.466-.15 11.946-.031 9.95.115l-1.48.004c9.856.06 30.003.003 31.473-.422.097.055-1.293.513-1.888.599L834.2 1.218c-1.55.366 4.398 1.236-3.774 1.442 2.345.052 5.25.112 10.197-.017-1.601-.051-3.99-.527-1.803-.561 6.006.407 4.17.218 11.57.564-2.4-.078.267-.651 4.058-.633-.591.086.318.566-1.07.625l9.44-.562c-2.356.1-.416.476 1.694.636-.978-.111 8.161.01 10.677-.046l-4-.13c10.656.085 10.525-.791 21.098-.762-1.281.117-3.16.715 2.217.786 2.463-.288 10.91-1.385 20.262-1.606l1.795.164 7.177-.188c-4.47.434-17.012 1.346-23.858 1.7 3.986.13 1.11.194 7.082.179 2.108.155-3.255.235-5.011.243l13.903.1c-.618-.336 10.634-.337 10.104-.617l-15.101.349c-.615-.336 8.731-.955 18.582-.895 2.508.134-1.874.598-1.668.71 1.278-.115 9.35-.221 10.256-.14l-4.18.18c5.484.127 8.95-.444 15.542-.124 2.275.02 6.792.433 7.186.234-3.71-.383-4.436-1.57-1.963-1.858.798.025 11.946.367 14.542.557 3.747.3-5.622.716-2.434.974.138-.092 2.207-.205 3.07-.241 2.388.078-.99.284 4.2.243.868-.342 10.56.028 2.457-.29 5.077-.096 5.395.07 11.359.057-1.899-.22 5.353-.75 10.442-.847-.3.087.84.199 1.395.25 10.409.03 15.996.187 25.704.189.894.083 5.579.183 3.584.33 1.394-.061 2.678-.176 5.671-.185 5.794.295-6.674.046-2.258.4.378-.198 7.744-.273 12.006-.396-1.31-.307-9.85-.06-14.121.064-.02-.421 7.412-.863 17.558-1.058 8.063-.106 3.497.272 4.896.213 15.145.073 12.902-.738 25.479-.433 4.99.269.225.534 1.333.729-6.57.1-10.086-.171-14.538-.161l5.481.128c-2.089.089-6.474.157-8.864.079 4.185.242 25.586.046 37.273.269 2.076-.09 5.66-.183 3.964-.291l-3.698.037c-3.398-.217 6.958-.3 2.278-.4 4.96-.153 10.52-.392 17.5-.27l1.313.307c-.15-.09-4.564-.183-6.525-.09 2.91-.135 10.705.416 13.893.014l-4.893-.212c4.979-.155 11.135-.48 17.321-.383-2.816-.303-1.427.034-5.822-.32 3.81.44-15.83-.018-9.707.445-4.51-.411-7.808-.175-13.706-.524.184.1 2.09.193-3.105.142-.234.03-.786.067-1.139.09l-.35-.008c.102.004.18.009.285.012-.225.015-.245.018.106.004 1.239.045 2.242.097 2.647.154-2.579.232-10.837.225-13.631.345-3.083-.048 1.29-.116-.393-.224l-4.173.18c-.414-.225-8.189-.373-.928-.505l-6.536-.01c-3.847-.126-9.14-.176-12.403-.081-3.082-.05-7.787.248-5.1.072l-10.25.139-.094-.056C1045.588.4 1034.88.8 1023.32.396c-3.405.057-6.923.126-12.619.062l-1.11-.194c-4.37.068-13.127-.195-15.004.008-4.716-.522-21.215-.114-28.902-.207l-.29.254c-5.292-.015-10.367.058-16.935.159l.405.224c-5.663.184-14.56-.16-23.519-.136.611-.086 2.882-.063 4.49-.012-10.7-.506-22.578.369-32.284-.001-2.417.082-4.17.055-5.865-.002.223-.001.425-.004.6-.011a74.19 74.19 0 0 0-.994-.003c-1.068-.038-2.167-.083-3.36-.12 1.013.055 1.983.099 2.827.12-1.866.005-4.695.033-7.467.09l-1.182-.242c-.224.003-.407.003-.64.007-2.722-.09-2.19.115-.737.295-1.396.04-2.675.087-3.669.146-2.208-.39-7.273.13-10.29-.283-1.87.202-13.942.15-15.419.577-.094-.056-.912-.082.586-.086-3.092-.048-6.182-.097-8.953.023l-1.313-.306-6.75.412c-4.1-.187-5.799-.295-1.728-.531-9.833.363-7.98.137-16.34.495l.409-.197c-2.99.007-7.769.273-9.571.109C801.01.67 774.615.994 757.452.644c3.33.583-7.978-.26-8.657.19-1-.137-3.392-.215-.612-.334-8.759.134-13.16-.22-19.205.162-1.005-.14 1.872-.202.98-.284-.7.03-2.781.12-3.694.037-.892-.082 1.283-.115 2.669-.176-8.946.023-9.851.448-10.503.848-4.534-.19-6.795-.162-10.07.098-1.579-.13-4.21-.266 1.348-.313-3.129-.02-19.106-.192-19.424.129-.98-.082-4.371-.025-5.196.012-7.017-.018-7.634-.047-14.525-.017l1.91.052c-2.721.385-5.73.085-11.284.132l.159-.04c-12.74-.277-5.5.134-18.068-.183l.683.239c-1.17.517-11.133-.304-18.427-.106l2.632.136c-3.983.177-11.134-.701-15.134-.765-.873-.045 1.377-.073 2.593-.106-10.473-.304-1.357.315-9.162.388-1.438-.17 1.856-.431-3.397-.463-2.617-.137-15.237.55-22.404.226 1.58.129 3.148.26-.477.358C574.63.91 565.165.37 560.146.783c-.705-.036-.972-.07-1.003-.103-4.246.106-13.802.176-16.362.4-3.924-.828-26.405.403-26.31-.362l-13.065.04.341-.077c-8.35-.05-11.304.133-14.24.317-1.93-.052-.52-.123-.361-.163-12.203-.155-13.417-.122-23.647.258l-1.064-.248c-2.773.144-17.64-.388-29.609-.1.118-.028.366-.075 1.316-.111-13.464.29-32.236-.687-37.17.216l-8.886.222c11.496.07-1.712.392 3.016.542-4.52.053-11.687-.272-6.131-.318l.869.045c2.04-.471-14.286-.167-13.976-.488-22.622.024-44.67-.237-65.86-.257l2.443.366-7.392-.021c-1.94-.086-2.603-.286 2.669-.271-2.773-.207-8.843.173-8.994.253-10.324-.15 4.034-.426.868-.436l-4.3.027.97.043c-3.487.15-3.795.309-10.133.29-4.01-.073-2.057-.225-3.637-.24.01-.025-.523-.038-2.42-.01l-9.311-.031 3.723.288c-4.129.143-8.757-.014-4.46.313-6.306-.504-34.735-.182-38.608-.338-5.78.21-11.487.207-18.557.18 1.758.062 2.811.386-3.285.346 2.228-.67-11.164-.29-16.094-.772 4.405.319-17.33.079-10.421.533-5.087-.055-.31-.251-4.169-.41-12.108.26-26.683-.168-41.65-.08-.233.088 2.274.222-.938.353l-7.9-.44c-2.957.044-2.722.509-8.122.203.762.074 1.9.185-.082.214-29.318-.43-59.91.35-89.686-.454 4.032.17 1.346.187-1.735.193 2.003.04-.045.218.348.337L14.666.7C12.396 1.03 1.301.723 0 1.039L3.948.982c-5.25.373 7.346.83 6.578 1.309 5.877-.425 15.499.628 25.143.02 2.129.099-1.816.155-.677.266 2.445-.205 5.396-.248 10.867-.156l-.617.05c15.37-.05 21.96.154 39.228.288l-1.28-.237c3.71.03 4.493.107 6.23.165 4.257-.358-10.423-.02-6.543-.416 4.922.483 26.166.007 29.493.555 5.708.003-1.673-.275 4.033-.271l1.513.149 1.441-.192c3.743.032 5.632.217 5.77.342-.908-.014-2.58.035-3.553.047 4.852.174 13.683-.06 15.35-.003l-5.484-.092c15.578-.138 34.597.056 49.648-.245l-1.142-.112c11.492-.206 9.205.123 21.823.027l-.458.028c2.524-.113 5.898-.168 9.35-.156-3.186.13 5.996.254 1.817.4 12.461-.222 6.164-.175 14.394-.59l1.9.185c2.803-.168 3.038-.256 9.34-.304-5.168.159 4.023.282-1.768.493 13.225.405 19.637-.41 25.704.184 6.072-.514-11.443-.286-8.043-.395-2.847-.168 5.012-.384 9.164-.332 4.224.012 7.182.656 17.808.646-1.056-.002-1.13.037-2.182.035 3.976.13 7.792-.177 12.67.035 2.734-.31 6.333.018 7.121-.378l-9.748.092c5.525-.104 10.708-.567 19.812-.342-.708.08-3.418.184-5.278.243 2.661.117 5.125-.077 7.884.042-.786.397-11.846.087-17.767.389 2.857.167 11.2-.287 8.226.142 4.275-.546 10.47.069 17.667-.347l-.475.237c1.139-.038 3.498-.15 5.593-.144l-3.794.308c5.825-.263 11.233.229 16.822.087-11.702.007-2.627-.286-7.575-.46 14.433-.317 8.3.62 24.457.507-2.186.034-8.212-.142-4.792-.252 3.076.049 7.138.139 9.027.264 10.705-.05-1.644-.244 2.913-.39 3.643.29 5.256-.117 9.949-.21l.033.24c12.2.156 3.234-.502 14.217-.314l-4.641.335 5.725-.087-1.181.274c6.229-.204 8.169-.151 14.272-.074-1.419-.17.796-.438 6.199-.445 3.685.143-2.063.229 5.597.195-1.73.15-3.624.34-6.958.118-.34.078-1.705.15-2.057.229 3.97.165 9.973.038 12.747.036-1.067-.01-2.344-.023-2.997-.057l11.102-.335c1.746.09.36.164-1.013.235 2.25-.026 3.805-.137 7.111-.158-.856.197-.65.399-5.33.49l10.577-.216c.707.085 5.43.234 4.056.306 5.865.116 14.386-.381 22.162-.228.403-.038 1.215-.074 2.867-.103 7.308.044 13.782.285 22.442.016l4.915.35c6.782-.078-6.653-.441 4.643-.574 7.996-.112 2.985.3 5.789.399 3.976-.178 10.89-.538 18.237-.252-2.432.066-4.339.013-6.61.04"/>
</svg>
